<svg width="24" height="24" viewBox="0 0 24 24" fill="none" xmlns="http://www.w3.org/2000/svg">
<path d="M7.35217 9.0773H15.8377C16.1988 9.0773 16.4908 9.36782 16.4908 9.72705C16.4908 10.0857 16.1988 10.3762 15.8377 10.3762H7.35217C6.99177 10.3762 6.69973 10.0857 6.69973 9.72705C6.69973 9.36782 6.99177 9.0773 7.35217 9.0773Z" fill="#919191"/>
<path d="M7.35224 7.77828H11.9215C12.2819 7.77828 12.5739 7.48776 12.5739 7.12853C12.5739 6.76993 12.2819 6.4794 11.9215 6.4794H7.35224C6.99115 6.4794 6.69917 6.76993 6.69917 7.12853C6.69917 7.48776 6.99115 7.77828 7.35224 7.77828Z" fill="#919191"/>
<path d="M7.35203 11.6753H13.4878C13.8489 11.6753 14.1409 11.9658 14.1409 12.325C14.1409 12.6836 13.8489 12.9742 13.4878 12.9742H7.35203C6.99163 12.9742 6.69959 12.6836 6.69959 12.325C6.69959 11.9658 6.99163 11.6753 7.35203 11.6753Z" fill="#919191"/>
<path d="M11.0075 14.2732H7.35231C6.99121 14.2732 6.69924 14.5637 6.69924 14.923C6.69924 15.2817 6.99121 15.5721 7.35231 15.5721H11.0075C11.3685 15.5721 11.6605 15.2817 11.6605 14.923C11.6605 14.5637 11.3685 14.2732 11.0075 14.2732Z" fill="#919191"/>
<path d="M7.35231 16.8711H11.0075C11.3685 16.8711 11.6605 17.1616 11.6605 17.5209C11.6605 17.8795 11.3685 18.1701 11.0075 18.1701H7.35231C6.99121 18.1701 6.69924 17.8795 6.69924 17.5209C6.69924 17.1616 6.99121 16.8711 7.35231 16.8711Z" fill="#919191"/>
<path d="M17.334 12.8557C17.6835 13.5982 17.4606 13.7682 17.0978 13.7682C16.9697 13.7682 16.8983 13.6716 16.8147 13.5585C16.6968 13.399 16.5546 13.2065 16.1945 13.206L16.1933 13.2063V17.0658C16.1933 17.7529 15.4471 18.3087 14.5269 18.3087C13.6061 18.3087 12.8604 17.7529 12.8604 17.0658C12.8604 16.3786 13.6061 15.8217 14.5269 15.8217H15.3598V12.0912C15.3598 11.8628 15.5457 11.6765 15.7765 11.6765C15.7865 11.6756 16.7392 11.5922 17.334 12.8557Z" fill="#919191"/>
<path fill-rule="evenodd" clip-rule="evenodd" d="M20.0785 5.90282L16.4694 2.26659C16.3002 2.09617 16.0702 2 15.8313 2H4.85315C4.20112 2 3.49994 2.47415 3.49994 3.51522V20.4848C3.49994 21.3205 4.17434 22 5.00388 22H18.8391C19.6687 22 20.3431 21.3205 20.3431 20.4848V6.54567C20.3431 6.30438 20.2476 6.07318 20.0785 5.90282ZM19.1014 20.768H4.74164V3.23197H14.5321V6.80394C14.5321 7.34216 14.9706 7.77856 15.5116 7.77856H19.1014V20.768ZM19.0863 6.54659H15.7738V3.2434L19.0863 6.54659Z" fill="#919191"/>
</svg>
