<svg width="24" height="24" viewBox="0 0 24 24" fill="none" xmlns="http://www.w3.org/2000/svg">
<path fill-rule="evenodd" clip-rule="evenodd" d="M13.4965 11.9994L20.6887 4.80718C20.9561 4.53975 21.0606 4.14996 20.9627 3.78464C20.8648 3.41933 20.5794 3.13398 20.2141 3.0361C19.8488 2.93821 19.459 3.04265 19.1916 3.31008L11.9994 10.5023L4.80718 3.31008C4.53975 3.04265 4.14996 2.93821 3.78464 3.0361C3.41933 3.13398 3.13398 3.41933 3.0361 3.78464C2.93821 4.14996 3.04265 4.53975 3.31008 4.80718L10.5023 11.9994L3.31008 19.1916C2.89667 19.605 2.89667 20.2753 3.31008 20.6887C3.72349 21.1021 4.39377 21.1021 4.80718 20.6887L11.9994 13.4965L19.1916 20.6887C19.3897 20.888 19.6591 21 19.9401 21C20.2211 21 20.4906 20.888 20.6887 20.6887C20.8874 20.4903 20.9991 20.221 20.9991 19.9401C20.9991 19.6593 20.8874 19.39 20.6887 19.1916L13.4965 11.9994Z" fill="#919191"/>
</svg>
