<svg width="25" height="24" viewBox="0 0 25 24" fill="none" xmlns="http://www.w3.org/2000/svg">
<path fill-rule="evenodd" clip-rule="evenodd" d="M15.9817 7.11358H14.2974C13.964 7.11358 13.6271 7.46244 13.6271 7.7213V9.45273H15.9774C15.8831 10.7804 15.6903 11.995 15.6903 11.995H13.6151V19.5224H10.5234V11.995H9.01829V9.46216H10.5234V7.39044C10.5234 7.01158 10.4471 4.47701 13.6914 4.47701H15.9817V7.11358ZM12.5 0C5.87257 0 0.5 5.37343 0.5 11.9991C0.5 18.6274 5.87257 24 12.5 24C19.1283 24 24.5 18.6274 24.5 11.9991C24.5 5.37343 19.1283 0 12.5 0Z" fill="#919191"/>
</svg>
