<svg width="25" height="24" viewBox="0 0 25 24" fill="none" xmlns="http://www.w3.org/2000/svg">
<path d="M12.4977 14.4633C11.1386 14.4633 10.0369 13.3616 10.0369 12.0025C10.0369 10.6435 11.1386 9.54177 12.4977 9.54177C13.8567 9.54177 14.9584 10.6435 14.9584 12.0025C14.9584 13.3616 13.8567 14.4633 12.4977 14.4633Z" fill="#919191"/>
<path fill-rule="evenodd" clip-rule="evenodd" d="M12.4977 5.94997C14.4688 5.94997 14.7023 5.9575 15.4807 5.99302C16.2005 6.02584 16.5914 6.1461 16.8515 6.2472C17.1961 6.38112 17.442 6.54109 17.7003 6.79944C17.9587 7.05775 18.1187 7.30367 18.2526 7.64826C18.3537 7.90839 18.4739 8.29927 18.5068 9.01904C18.5423 9.79747 18.5498 10.031 18.5498 12.0021C18.5498 13.9733 18.5423 14.2068 18.5068 14.9852C18.4739 15.705 18.3537 16.0958 18.2526 16.356C18.1187 16.7006 17.9587 16.9465 17.7003 17.2048C17.442 17.4631 17.1961 17.6231 16.8515 17.757C16.5914 17.8581 16.2005 17.9784 15.4807 18.0112C14.7024 18.0467 14.469 18.0543 12.4977 18.0543C10.5264 18.0543 10.2929 18.0467 9.51459 18.0112C8.79482 17.9784 8.40394 17.8581 8.1438 17.757C7.79922 17.6231 7.5533 17.4631 7.29498 17.2048C7.03667 16.9465 6.87667 16.7006 6.74275 16.356C6.64165 16.0958 6.52139 15.705 6.48857 14.9852C6.45305 14.2068 6.44552 13.9733 6.44552 12.0021C6.44552 10.031 6.45305 9.79747 6.48857 9.01904C6.52139 8.29927 6.64165 7.90839 6.74275 7.64826C6.87667 7.30367 7.03664 7.05775 7.29498 6.79944C7.5533 6.54109 7.79922 6.38112 8.1438 6.2472C8.40394 6.1461 8.79482 6.02584 9.51459 5.99302C10.293 5.9575 10.5265 5.94997 12.4977 5.94997ZM8.70679 12.0022C8.70679 9.90847 10.404 8.21124 12.4977 8.21124C14.5914 8.21124 16.2886 9.90847 16.2886 12.0022C16.2886 14.0958 14.5914 15.793 12.4977 15.793C10.404 15.793 8.70679 14.0958 8.70679 12.0022ZM16.4384 8.94768C16.9276 8.94768 17.3243 8.55108 17.3243 8.06182C17.3243 7.57256 16.9276 7.17593 16.4384 7.17593C15.9491 7.17593 15.5525 7.57256 15.5525 8.06182C15.5525 8.55108 15.9491 8.94768 16.4384 8.94768Z" fill="#919191"/>
<path fill-rule="evenodd" clip-rule="evenodd" d="M24.5 12C24.5 18.6274 19.1274 24 12.5 24C5.87258 24 0.5 18.6274 0.5 12C0.5 5.37258 5.87258 0 12.5 0C19.1274 0 24.5 5.37258 24.5 12ZM9.45396 4.66432C10.2414 4.62839 10.4928 4.61989 12.4977 4.61989C14.5026 4.61989 14.754 4.62839 15.5414 4.66432C16.3271 4.70016 16.8638 4.82496 17.3333 5.00747C17.8188 5.1961 18.2305 5.44852 18.6409 5.85892C19.0513 6.26936 19.3038 6.68105 19.4924 7.1665C19.6749 7.63607 19.7997 8.17271 19.8355 8.95847C19.8715 9.74587 19.88 9.99727 19.88 12.0022C19.88 14.0071 19.8715 14.2585 19.8355 15.0459C19.7997 15.8316 19.6749 16.3683 19.4924 16.8379C19.3038 17.3233 19.0513 17.735 18.6409 18.1454C18.2305 18.5558 17.8188 18.8083 17.3333 18.9969C16.8638 19.1794 16.3271 19.3042 15.5414 19.34C14.754 19.376 14.5026 19.3845 12.4977 19.3845C10.4928 19.3845 10.2414 19.376 9.45396 19.34C8.66821 19.3042 8.13156 19.1794 7.66199 18.9969C7.17654 18.8083 6.76485 18.5558 6.35442 18.1454C5.94402 17.735 5.69159 17.3233 5.50296 16.8379C5.32045 16.3683 5.19565 15.8316 5.15981 15.0459C5.12388 14.2585 5.11538 14.0071 5.11538 12.0022C5.11538 9.99727 5.12388 9.74587 5.15981 8.95847C5.19565 8.17271 5.32045 7.63607 5.50296 7.1665C5.69159 6.68105 5.94402 6.26936 6.35442 5.85892C6.76485 5.44852 7.17654 5.1961 7.66199 5.00747C8.13156 4.82496 8.66821 4.70016 9.45396 4.66432Z" fill="#919191"/>
</svg>
