<svg width="17" height="16" viewBox="0 0 17 16" fill="none" xmlns="http://www.w3.org/2000/svg">
<path d="M1.0025 16C0.742499 16 0.4925 15.9001 0.2925 15.7102C-0.0975 15.3204 -0.0975 14.6908 0.2925 14.3011L4.0225 10.5734C4.4125 10.1837 5.0425 10.1837 5.4325 10.5734C5.8225 10.9632 5.8225 11.5928 5.4325 11.9825L1.7025 15.7102C1.5125 15.9001 1.2625 16 1.0025 16Z" fill="#DADADA"/>
<path d="M9.10252 13.7913C5.30252 13.7913 2.20251 10.7032 2.20251 6.89565C2.20251 3.08805 5.29252 0 9.10252 0C12.9125 0 16.0025 3.08805 16.0025 6.89565C16.0025 10.7032 12.9125 13.7913 9.10252 13.7913ZM9.10252 2.00873C6.40252 2.00873 4.20251 4.20734 4.20251 6.90564C4.20251 9.60394 6.40252 11.8026 9.10252 11.8026C11.8025 11.8026 14.0025 9.60394 14.0025 6.90564C14.0025 4.20734 11.8025 2.00873 9.10252 2.00873Z" fill="#DADADA"/>
</svg>
