<svg width="40" height="40" viewBox="0 0 40 40" fill="none" xmlns="http://www.w3.org/2000/svg">
<path d="M19.9955 0C13.2303 0 7.24711 3.36364 3.6281 8.50909H17.8404C17.8404 8.50909 18.8588 8.81818 18.8588 9.95455C18.8588 11.0909 17.804 11.4 17.804 11.4H1.92771C1.64583 11.9909 1.39123 12.6091 1.16391 13.2273H26.115C26.115 13.2273 27.1334 13.5455 27.1334 14.6818C27.1334 15.8182 26.0787 16.1273 26.0787 16.1273H6.40145H0.36372C0.245512 16.7545 0.145491 17.3909 0.0818404 18.0364H36.0627C36.0627 18.0364 37.0812 18.3455 37.0812 19.4818C37.0812 20.6182 36.0264 20.9273 36.0264 20.9273H16.3492H0C0.0272789 21.5545 0.090932 22.1727 0.172769 22.7818H33.253C33.253 22.7818 34.2714 23.0909 34.2714 24.2273C34.2714 25.3636 33.2166 25.6727 33.2166 25.6727H13.5485H0.809281C1.00023 26.3182 1.21846 26.9455 1.47306 27.5545H22.8779C22.8779 27.5545 23.8963 27.8636 23.8963 29C23.8963 30.1364 22.8416 30.4455 22.8416 30.4455H3.17345H2.95522C6.46511 36.1818 12.7847 40 19.9955 40C31.0434 40 40 31.0455 40 20C40 8.95455 31.0434 0 19.9955 0Z" fill="#282828"/>
</svg>
