<svg width="21" height="20" viewBox="0 0 21 20" fill="none" xmlns="http://www.w3.org/2000/svg">
<path fill-rule="evenodd" clip-rule="evenodd" d="M0.976929 10C0.976929 4.47742 5.4537 0 10.9769 0C16.5002 0 20.9769 4.47742 20.9769 10C20.9769 15.5226 16.5002 20 10.9769 20C5.4537 20 0.976929 15.5226 0.976929 10ZM5.01677 16.2041C6.56504 17.6916 8.66489 18.6095 10.9769 18.6095C15.724 18.6095 19.5864 14.7471 19.5864 10C19.5864 5.25358 15.724 1.39119 10.9769 1.39119C8.69806 1.39119 6.62518 2.28283 5.08382 3.73365H11.6819C12.0725 3.73365 12.3897 4.05021 12.3897 4.44074C12.3897 4.83126 12.0725 5.14852 11.6819 5.14852H3.87008C3.57978 5.57222 3.3275 6.02357 3.11599 6.49704H14.3285C14.7197 6.49704 15.037 6.81429 15.037 7.20482C15.037 7.59534 14.7197 7.91191 14.3285 7.91191H2.62524C2.51604 8.34943 2.44139 8.80009 2.40199 9.26112H17.0387C17.4292 9.26112 17.7465 9.57768 17.7465 9.96821C17.7465 10.3587 17.4292 10.676 17.0387 10.676H2.39646C2.43309 11.1363 2.50498 11.587 2.61073 12.0245H15.6363C16.0268 12.0245 16.344 12.3418 16.344 12.7323C16.344 13.1235 16.0268 13.4401 15.6363 13.4401H3.08696C3.29363 13.9128 3.54107 14.3635 3.82585 14.7886H12.9897C13.3802 14.7886 13.6975 15.1052 13.6975 15.4957C13.6975 15.8869 13.3802 16.2041 12.9897 16.2041H5.01677Z" fill="#828282"/>
</svg>
