<svg width="25" height="24" viewBox="0 0 25 24" fill="none" xmlns="http://www.w3.org/2000/svg">
<path fill-rule="evenodd" clip-rule="evenodd" d="M18.0234 9.82289C18.0277 9.93432 18.0294 10.0449 18.0294 10.158C18.0294 13.584 15.422 17.5346 10.6537 17.5346C9.18886 17.5346 7.82686 17.1069 6.68001 16.3697C6.88315 16.3937 7.08886 16.4057 7.29801 16.4057C8.51258 16.4057 9.63029 15.9917 10.5183 15.2957C9.38429 15.276 8.42601 14.5252 8.09601 13.4957C8.25458 13.5266 8.41744 13.5429 8.58458 13.5429C8.82029 13.5429 9.04829 13.5103 9.26772 13.4512C8.08058 13.2129 7.18658 12.1646 7.18658 10.9097V10.8763C7.53715 11.07 7.93658 11.1875 8.36258 11.2003C7.66572 10.734 7.20801 9.94203 7.20801 9.04289C7.20801 8.56717 7.33572 8.12317 7.55944 7.73832C8.83744 9.30775 10.7489 10.3397 12.9029 10.4486C12.8591 10.2592 12.836 10.0595 12.836 9.85717C12.836 8.42489 13.9974 7.26517 15.4289 7.26517C16.1746 7.26517 16.8474 7.57975 17.3206 8.08375C17.912 7.96717 18.4666 7.75117 18.968 7.45375C18.7734 8.05889 18.3629 8.56717 17.8272 8.88775C18.3517 8.82689 18.8523 8.68717 19.316 8.4806C18.968 9.00003 18.53 9.45603 18.0234 9.82289ZM12.5 0C5.87257 0 0.5 5.37343 0.5 12C0.5 18.6266 5.87257 24 12.5 24C18.5429 24 23.54 19.5326 24.3749 13.7211C24.4554 13.326 24.4931 12.9171 24.4863 12.4954C24.4949 12.3317 24.5 12.1663 24.5 12C24.5 5.37343 19.1283 0 12.5 0Z" fill="#919191"/>
</svg>
