<svg width="16" height="18" viewBox="0 0 16 18" fill="none" xmlns="http://www.w3.org/2000/svg">
<path fill-rule="evenodd" clip-rule="evenodd" d="M8.00001 2C6.3841 2 5.08553 3.29949 5.08553 4.88849C5.08553 6.47749 6.3841 7.77698 8.00001 7.77698C9.61592 7.77698 10.9145 6.4775 10.9145 4.88849C10.9145 3.29949 9.61592 2 8.00001 2ZM3.08553 4.88849C3.08553 2.18238 5.29212 0 8.00001 0C10.7079 0 12.9145 2.18239 12.9145 4.88849C12.9145 7.5946 10.7079 9.77698 8.00001 9.77698C5.29212 9.77698 3.08553 7.5946 3.08553 4.88849ZM0 14.8041C0 12.5301 1.85861 10.6934 4.13158 10.6934H11.7418C14.07 10.6934 16 12.585 16 14.9299V16.3252C16 17.2612 15.2467 18 14.3207 18H1.67928C0.753359 18 0 17.2612 0 16.3252V14.8041ZM4.13158 12.6934C2.9506 12.6934 2 13.6472 2 14.8041V16H14V14.9299C14 13.7067 12.9826 12.6934 11.7418 12.6934H4.13158Z" fill="#DADADA"/>
</svg>
