<svg width="25" height="24" viewBox="0 0 25 24" fill="none" xmlns="http://www.w3.org/2000/svg">
<path d="M10.6538 9.23077L10.6546 13.8462L15.2692 11.5465L10.6538 9.23077Z" fill="#919191"/>
<path fill-rule="evenodd" clip-rule="evenodd" d="M12.5 24C19.1274 24 24.5 18.6274 24.5 12C24.5 5.37258 19.1274 0 12.5 0C5.87258 0 0.5 5.37258 0.5 12C0.5 18.6274 5.87258 24 12.5 24ZM20.6418 8.85116C20.6418 8.85116 20.4794 7.76587 19.9812 7.28795C19.4116 6.72244 18.7799 6.66423 18.4231 6.63135C18.3841 6.62776 18.3484 6.62447 18.3164 6.62086C15.9913 6.46154 12.5036 6.46154 12.5036 6.46154H12.4964C12.4964 6.46154 9.00871 6.46154 6.68355 6.62086C6.65158 6.62447 6.6159 6.62776 6.57695 6.63135C6.22013 6.66423 5.5886 6.72242 5.01876 7.28795C4.52058 7.76587 4.35847 8.85116 4.35847 8.85116C4.35847 8.85116 4.19231 10.1256 4.19231 11.4001V12.5949C4.19231 13.8694 4.35847 15.1438 4.35847 15.1438C4.35847 15.1438 4.52058 16.2291 5.01876 16.7071C5.54278 17.2271 6.20303 17.3024 6.62416 17.3504C6.71098 17.3603 6.78763 17.369 6.85083 17.3803C8.18008 17.5011 12.5 17.5385 12.5 17.5385C12.5 17.5385 15.9913 17.5335 18.3164 17.3742C18.3484 17.3706 18.3841 17.3673 18.423 17.3637C18.7799 17.3308 19.4116 17.2726 19.9812 16.7071C20.4794 16.2291 20.6418 15.1438 20.6418 15.1438C20.6418 15.1438 20.8077 13.8694 20.8077 12.5949V11.4001C20.8077 10.1256 20.6418 8.85116 20.6418 8.85116Z" fill="#919191"/>
</svg>
